<?xml version="1.0" standalone="no"?>
<!DOCTYPE svg PUBLIC "-//W3C//DTD SVG 20010904//EN"
 "http://www.w3.org/TR/2001/REC-SVG-20010904/DTD/svg10.dtd">
<svg version="1.0" xmlns="http://www.w3.org/2000/svg"
 width="800.000000pt" height="800.000000pt" viewBox="0 0 800.000000 800.000000"
 preserveAspectRatio="xMidYMid meet">
<metadata>
Created by potrace 1.11, written by Peter Selinger 2001-2013
</metadata>
<g transform="translate(0.000000,800.000000) scale(0.100000,-0.100000)"
fill="#000000" stroke="none">
<path d="M1249 7091 c-7 -36 -14 -68 -14 -71 0 -3 -5 -23 -10 -45 -4 -22 -9
-49 -11 -60 -1 -11 -5 -31 -8 -45 -4 -14 -9 -38 -11 -55 -3 -16 -8 -37 -10
-45 -2 -8 -6 -32 -10 -54 -3 -21 -7 -41 -9 -45 -3 -3 -7 -26 -11 -51 -4 -25
-8 -47 -11 -51 -2 -3 -6 -25 -9 -49 -3 -23 -7 -45 -9 -49 -2 -3 -7 -24 -10
-46 -4 -22 -8 -47 -11 -55 -2 -8 -6 -32 -10 -54 -3 -21 -7 -41 -9 -45 -2 -3
-7 -24 -10 -46 -4 -22 -9 -49 -13 -60 -3 -11 -7 -29 -8 -40 -1 -16 -13 -73
-20 -105 -3 -12 -15 -77 -19 -103 -3 -15 -7 -35 -10 -45 -3 -9 -7 -28 -10 -42
-2 -14 -14 -74 -26 -135 -12 -60 -24 -121 -27 -135 -10 -50 -65 -325 -68 -335
-1 -5 -5 -28 -9 -50 -4 -22 -21 -103 -36 -180 -16 -77 -31 -157 -34 -179 -4
-21 -8 -41 -11 -45 -2 -4 -7 -30 -11 -57 -3 -27 -10 -60 -15 -73 -5 -13 -7
-26 -5 -28 3 -3 1 -15 -4 -28 -5 -13 -11 -41 -15 -62 -3 -22 -10 -54 -15 -72
-5 -17 -9 -34 -9 -36 0 -3 -2 -18 -5 -33 -3 -15 -8 -44 -11 -66 -3 -21 -7 -41
-9 -45 -2 -3 -7 -22 -10 -41 -3 -19 -12 -68 -20 -107 -9 -40 -18 -87 -21 -105
-3 -18 -8 -40 -10 -48 -2 -8 -6 -32 -10 -54 -3 -21 -7 -42 -10 -46 -2 -4 -7
-26 -10 -50 -3 -23 -7 -45 -10 -49 -2 -4 -7 -30 -11 -57 -3 -27 -10 -60 -15
-73 -5 -13 -8 -26 -5 -28 2 -3 0 -19 -5 -36 -5 -18 -12 -45 -15 -62 -3 -16
-17 -86 -31 -155 -14 -69 -27 -135 -28 -147 -2 -11 -6 -29 -9 -40 -3 -10 -8
-36 -12 -58 -3 -22 -12 -68 -20 -103 -8 -35 -17 -82 -21 -105 -3 -23 -10 -53
-14 -66 -5 -13 -8 -26 -5 -28 2 -3 0 -19 -5 -36 -5 -18 -12 -48 -15 -67 -3
-19 -12 -64 -21 -100 -8 -36 -16 -76 -18 -90 -2 -14 -11 -59 -20 -100 -9 -41
-18 -91 -21 -110 -3 -19 -7 -43 -10 -52 -3 -9 -7 -27 -9 -40 -3 -13 -8 -36
-11 -53 -4 -16 -8 -39 -10 -50 -2 -11 -5 -31 -9 -45 -3 -14 -8 -38 -10 -55 -3
-16 -8 -37 -10 -45 -2 -8 -6 -32 -10 -54 -3 -21 -7 -41 -9 -45 -3 -3 -7 -26
-11 -51 -4 -25 -8 -47 -10 -50 -2 -3 -6 -25 -10 -50 -4 -25 -8 -47 -10 -50 -2
-3 -6 -23 -9 -45 -4 -22 -8 -47 -11 -55 -2 -8 -6 -32 -10 -54 -3 -21 -7 -41
-9 -45 -3 -3 -7 -26 -11 -51 -4 -25 -8 -47 -11 -51 -2 -4 -6 -28 -9 -53 -3
-26 -10 -58 -15 -72 -6 -13 -9 -28 -9 -32 1 -4 0 -9 -1 -12 -1 -3 -3 -14 -5
-25 -7 -45 -17 -100 -40 -207 -13 -62 -21 -115 -19 -118 3 -3 322 -5 710 -6
771 -1 706 -6 718 56 3 14 21 104 40 200 20 96 37 186 40 200 2 14 5 25 6 25
1 0 3 9 5 20 3 24 9 52 35 180 11 55 23 116 26 135 3 19 7 43 10 52 3 9 7 27
9 40 3 13 9 46 15 73 5 28 12 61 14 75 3 14 8 36 11 50 3 14 7 36 10 50 7 36
23 121 30 150 3 14 8 39 11 55 3 17 14 73 25 125 11 52 22 111 25 130 3 19 7
43 10 52 5 19 12 49 19 93 3 17 15 75 26 130 12 55 23 107 24 115 2 8 4 20 4
26 1 7 216 10 711 10 639 0 710 -1 710 -15 0 -9 -5 -34 -9 -56 -5 -22 -12 -56
-15 -76 -3 -20 -8 -42 -10 -50 -3 -8 -7 -30 -10 -49 -3 -19 -17 -89 -30 -155
-14 -66 -27 -131 -30 -145 -2 -14 -9 -46 -15 -73 -6 -26 -14 -64 -17 -85 -4
-20 -7 -41 -9 -47 -3 -14 -16 -77 -19 -95 -2 -8 -6 -33 -11 -55 -4 -22 -9 -48
-11 -58 -2 -10 -5 -26 -8 -35 -3 -9 -7 -35 -11 -57 -3 -22 -10 -56 -15 -75 -5
-19 -12 -50 -15 -67 -13 -84 -17 -101 -26 -138 -6 -22 -12 -57 -14 -78 -3 -21
-7 -42 -9 -46 -3 -4 -8 -23 -11 -42 -5 -27 -31 -161 -61 -304 -2 -10 -6 -37
-10 -59 -3 -22 -7 -43 -9 -46 -5 -8 -18 -82 -19 -110 l-1 -25 707 -1 707 -1 7
31 c4 17 8 36 9 41 0 6 4 24 8 40 3 17 9 44 12 60 5 34 10 57 25 131 6 28 13
64 16 80 9 43 12 59 14 59 1 0 3 11 4 25 4 34 35 190 40 198 2 4 7 27 10 52 4
25 11 63 16 85 6 22 12 54 15 70 2 17 6 41 10 55 3 14 7 36 10 50 7 35 12 64
31 153 8 42 18 89 20 104 3 14 12 56 20 92 8 36 17 80 19 98 3 18 12 64 20
102 8 39 17 85 20 103 3 18 10 49 15 68 5 19 11 51 14 70 6 36 8 49 26 136 6
28 13 61 15 75 3 13 7 35 10 49 4 14 8 34 9 45 8 46 35 181 40 195 3 8 7 32
10 52 3 21 11 59 17 85 6 27 12 59 14 73 3 14 7 36 10 50 3 14 7 36 10 50 7
34 12 62 30 150 18 87 17 84 44 220 11 58 22 112 25 120 3 8 7 31 10 50 3 19
12 67 20 105 8 39 17 83 20 98 4 22 33 168 41 202 1 6 6 33 10 60 5 28 10 52
10 55 11 41 15 60 19 85 3 17 8 41 11 55 3 14 8 36 11 50 2 14 9 48 14 75 6
28 12 61 15 75 6 31 43 216 51 250 2 14 11 57 19 95 7 39 15 79 18 90 3 11 8
40 13 65 4 25 8 47 9 50 1 3 5 25 10 50 10 52 12 59 14 63 2 1 4 14 6 30 2 15
9 51 14 80 6 28 13 63 16 77 3 14 9 48 15 76 6 28 13 64 16 80 9 43 12 59 14
59 1 0 3 9 4 20 2 18 6 40 22 120 8 44 14 72 24 120 18 85 20 99 26 135 3 19
8 38 9 41 2 3 7 28 11 55 3 27 9 53 11 58 3 4 7 20 9 35 2 14 8 49 14 76 6 28
13 61 15 75 7 35 14 71 20 100 3 14 7 36 10 50 3 14 14 72 26 129 11 57 23
116 26 130 2 14 8 44 13 66 5 22 10 45 10 51 0 8 -608 11 -2133 11 l-2134 0
-14 -66z m2565 -1387 c-1 -30 -8 -71 -18 -114 -3 -14 -8 -36 -10 -50 -2 -14
-9 -46 -15 -73 -6 -26 -14 -64 -17 -83 -6 -42 -10 -59 -18 -94 -3 -14 -8 -36
-10 -50 -2 -14 -7 -36 -10 -50 -3 -14 -8 -37 -10 -53 -3 -15 -7 -35 -10 -45
-3 -9 -7 -35 -11 -57 -3 -22 -10 -56 -15 -75 -5 -19 -12 -52 -16 -74 -6 -44
-10 -61 -18 -96 -3 -14 -8 -36 -10 -50 -2 -14 -9 -46 -15 -73 -6 -26 -14 -64
-17 -85 -4 -20 -7 -41 -8 -47 -2 -5 -8 -37 -15 -70 -6 -33 -17 -81 -22 -107
l-11 -48 -709 0 c-635 0 -709 2 -709 16 0 8 4 34 9 57 18 79 41 192 77 372 19
99 37 189 40 200 6 30 23 117 28 145 3 14 8 36 11 50 3 14 7 36 10 50 7 36 23
121 30 150 3 14 8 39 11 55 3 17 14 75 26 130 11 55 22 107 23 115 2 8 4 25 4
37 2 49 -20 48 727 47 l699 0 -1 -30z"/>
<path d="M5981 7151 c-5 -4 -12 -20 -15 -36 -3 -17 -8 -41 -11 -55 -3 -14 -7
-36 -10 -50 -3 -14 -7 -36 -10 -50 -3 -14 -8 -38 -11 -55 -3 -16 -9 -48 -14
-70 -5 -22 -12 -56 -15 -75 -3 -19 -8 -43 -11 -53 -3 -10 -7 -30 -9 -45 -3
-15 -7 -38 -10 -52 -3 -14 -7 -36 -10 -50 -3 -14 -7 -36 -10 -50 -3 -14 -8
-36 -10 -50 -2 -14 -6 -36 -9 -50 -19 -89 -29 -138 -32 -155 -2 -11 -5 -31 -9
-45 -3 -14 -7 -36 -10 -50 -3 -14 -7 -36 -10 -50 -3 -14 -8 -41 -11 -60 -7
-35 -8 -43 -25 -115 -5 -22 -11 -53 -13 -70 -3 -16 -7 -41 -11 -55 -3 -14 -7
-36 -10 -51 l-5 -25 1009 0 c555 1 1012 3 1015 6 2 3 7 18 10 33 2 14 12 63
21 107 9 43 17 89 18 100 1 11 4 20 7 20 3 0 6 8 6 18 1 26 13 102 18 110 2 4
7 27 11 52 4 25 8 47 10 50 2 3 6 25 10 50 4 25 8 47 10 50 2 3 6 23 9 45 4
22 8 47 11 55 2 8 6 32 10 54 3 21 7 41 9 45 3 3 7 26 11 51 4 25 8 47 10 50
2 3 6 21 9 40 6 39 10 59 27 140 7 30 13 65 14 77 2 11 6 29 9 40 3 10 8 32
11 50 3 18 12 63 19 100 8 37 12 70 9 73 -7 7 -2000 8 -2012 1z"/>
<path d="M5399 4293 c-3 -35 -18 -116 -53 -283 -15 -68 -25 -118 -29 -145 -3
-16 -8 -37 -11 -45 -3 -8 -7 -31 -10 -50 -3 -19 -8 -46 -11 -60 -3 -14 -8 -41
-11 -60 -4 -19 -9 -44 -11 -55 -3 -11 -9 -40 -13 -65 -5 -25 -22 -112 -39
-195 -18 -82 -34 -161 -36 -175 -9 -43 -15 -74 -19 -95 -24 -121 -30 -152 -31
-164 0 -13 99 -15 695 -16 382 0 702 3 711 7 9 4 20 26 24 50 12 66 14 76 35
178 20 97 25 126 36 193 4 20 11 40 15 43 5 3 7 9 4 14 -3 5 4 51 15 102 12
51 23 104 25 118 7 47 16 95 30 160 8 36 17 76 19 90 2 14 11 57 19 95 15 69
24 114 32 168 2 15 7 31 10 36 2 5 7 26 10 47 6 48 12 80 20 105 6 19 -8 19
-709 19 -675 0 -716 -1 -717 -17z"/>
</g>
</svg>
